<?xml version="1.0" standalone="no"?><svg xmlns="http://www.w3.org/2000/svg" viewBox="0 0 1440 320"><path fill="#070D59" fill-opacity="1" d="M0,160L12,170.7C24,181,48,203,72,208C96,213,120,203,144,170.7C168,139,192,85,216,64C240,43,264,53,288,101.3C312,149,336,235,360,234.7C384,235,408,149,432,112C456,75,480,85,504,112C528,139,552,181,576,186.7C600,192,624,160,648,170.7C672,181,696,235,720,229.3C744,224,768,160,792,144C816,128,840,160,864,154.7C888,149,912,107,936,101.3C960,96,984,128,1008,165.3C1032,203,1056,245,1080,234.7C1104,224,1128,160,1152,138.7C1176,117,1200,139,1224,176C1248,213,1272,267,1296,245.3C1320,224,1344,128,1368,106.7C1392,85,1416,139,1428,165.3L1440,192L1440,0L1428,0C1416,0,1392,0,1368,0C1344,0,1320,0,1296,0C1272,0,1248,0,1224,0C1200,0,1176,0,1152,0C1128,0,1104,0,1080,0C1056,0,1032,0,1008,0C984,0,960,0,936,0C912,0,888,0,864,0C840,0,816,0,792,0C768,0,744,0,720,0C696,0,672,0,648,0C624,0,600,0,576,0C552,0,528,0,504,0C480,0,456,0,432,0C408,0,384,0,360,0C336,0,312,0,288,0C264,0,240,0,216,0C192,0,168,0,144,0C120,0,96,0,72,0C48,0,24,0,12,0L0,0Z"></path></svg>